/* XPM */
static char *b336cd2c17bc4c24e68a134bcfc6f35e3JLxLIu6PBJpmmBL[] = {
/* columns rows colors chars-per-pixel */
"50 50 90 1 ",
"  c #96978B",
". c #999A8A",
"X c #9B9B8E",
"o c #9C9C8C",
"O c #9E9E96",
"+ c #A29D96",
"@ c #9DA091",
"# c #A2A395",
"$ c #A2A19A",
"% c #A4A49A",
"& c #A4A59B",
"* c #A5A59B",
"= c #A3A29D",
"- c #A8A79D",
"; c #ABA79E",
": c #A8AA9D",
"> c #AAAB9E",
", c #ADA99E",
"< c #AEA99E",
"1 c #A9A8A0",
"2 c #AAAAA0",
"3 c #AEABA1",
"4 c #ABADA0",
"5 c #ACAEA2",
"6 c #AFAFA3",
"7 c #ADADA4",
"8 c #ADAFA4",
"9 c #AFAFA4",
"0 c #AEACA9",
"q c #ACAEAA",
"w c #B0AFA9",
"e c #AFB1A5",
"r c #AFB1AC",
"t c #B0B2A5",
"y c #B2B2A5",
"u c #B2B0A8",
"i c #B1B3A8",
"p c #B0B2AA",
"a c #B4B2AA",
"s c #B4B4A9",
"d c #B3B2AC",
"f c #B3B2AD",
"g c #B4B3AD",
"h c #B6B6AC",
"j c #B8B5AC",
"k c #B4B8AB",
"l c #B4B8AC",
"z c #B6B9AC",
"x c #B8BBAE",
"c c #BABBAF",
"v c #BCB9AF",
"b c #B6B8B2",
"n c #BBB9B3",
"m c #B8BCB3",
"M c #BDBDB5",
"N c #C3BEB6",
"B c #BFC2B6",
"V c #BFC0BB",
"C c #BFC3BC",
"Z c #C3C3B9",
"A c #C2C1BC",
"S c #C6C6BF",
"D c #C9CBBF",
"F c #C3C1C2",
"G c #CACBC2",
"H c #CDC8C1",
"J c #CCCCC0",
"K c #C9C8C5",
"L c #CBCAC7",
"P c #CCCACB",
"I c #CECDC8",
"U c #D4CDC7",
"Y c #D1CFCC",
"T c #D3D5C9",
"R c #D4D3CF",
"E c #D3D4CC",
"W c #D7D6D1",
"Q c #D5D3D4",
"! c #DAD8D6",
"~ c #DBDED7",
"^ c #DDDBDA",
"/ c #DFDFDA",
"( c #DEDCDE",
") c #E6E0DA",
"_ c #E1E0DF",
"` c #E7E6E3",
"' c #E6E5E4",
"] c #E6E4E6",
"[ c #EBE8E8",
"{ c #EDEBEF",
/* pixels */
"MmmmrPl488t4e44eexhWcpahapyyaf^Kgmjjhtpt:nMMhZWmCB",
"CVmmmPp4t5yfrliikl,Qn9jht6wajh/A9h5pyicct,hjjZ~mCB",
"VCmBmPl8hftfihxMblq!M9jgp56pa-WK:9tap<yjvkss:x_nCC",
"mmmBpPb599:8ssk4::=!Mg5w9g9bM8_K+pwppu:,thamkt_pmm",
"!('(!`PYRRR!!!TI^R_[YKKY!R~)''](YYLIPKSFZPR!WL[IPT",
"gawpmMMBAS!ALIDKMhaaapwgMA_IGYPPPKKGLGIKIKL!!FMMmr",
"3,,32-:8$MKoty%3ht5,:%*-,q/Kpgabhgjtfaphqt5hM.**=:",
"ggccvhhcfAU,Mncwehtptp63-8^QbbMnMbbmhhkkjhajS:jylk",
"ctthhccc5NR3nbbahMct,aj638^UbxMbbbbbmlphjpaxU:ppq6",
"MlaphhvhwAI-bbbhtatpjp6<9w(EhbMMbbMblcchhksnDta6tp",
"jmxihhhh0AI;bgapwjpsttp:cF/PpMbnbAMmxMcbxciMY9p666",
"hihihhhp:KI+bhawwtap95tsgn_UpnbnMMmMAmnnbmkFUpttyt",
"hijhhhjg1NP=mbgtt6,tputj8c`IgMbgmMANMAMMMMfPW5ptt8",
"tt,t66:*=FEOqf8ta6y:::pahc/I8b00:pp9bnMMhaqKW=,:43",
"SNhNSAPW([/NPPPIIRYURIYU_'['WYRKSPYILYPWWKK'`FKSFK",
"DDDZKYPS^FHKKLGKIUDKJF/WMMxhhvhvnmY^MMMKSPLAZDKY_!",
"%:6t8:e$K::5t4ee0qwftb^9:at,ttpy9-KS.:,tg53:=:%$_-",
"nMMMM4cAW6MMmkhietwath^panvccMMvp:NP:na95gMMMMMp/M",
"nbbmMMMb!whxhpiihsgmhtWptpntjMxx:#MG:al:1bgjhhvg/S",
"bapnmhAM^6tilxktkhhhhjWt6tjaxmcat#MR3j9*gphpllhg_L",
"::twttMb/3,tkMZkhepiihWt;pggjxht5:AW:a::gwhttpgg)E",
"%O**3:mh/t:gxxBhlihhh:U:,6pgskmit,N)ht*:gwrefhqqRU",
"@XO&#:*8`a#phtthlhhtt:D63:08wt56:*n):#otpttfekl0LW",
">:::::#:[MO:::58>*::>*EbnFbnMNAZZSLWw:$:35:9emMlP/",
"__)(/WQ!`WMDDGYWTI^/~_'~_``_//(`'(``)WYPIR^^([(RW(",
"skMithhtjvpS[AZZBSKGKDKK_M+56hhchjvcDFAMMnMnZ`npy5",
"leiiatpsyh:N!-yptllbmmmm!tXttphthphxbppghaptn)gjhc",
"esilkmhppthAEhlgtmmmmmmm~M:t66whjtalnMnnhhcpbWapte",
"pythjpjhxhpMTlpetlmxkkBm)J*i6paMctvcbMxh5jhlmLjyw8",
"tppjlhhhxMhMIlilhmxmBkBm~Z,lctahcpjhhhjhptapwWnvp9",
"ajata6acktmGJileekkZBBBm~MsMvahtihlmhxmjap9wpGMvap",
"kkhjpt5tchtZTeetkkfkxBmm~FMhjayaessessjtagggpSMvkv",
"vckjqwugajhNQehrtlpkmcbM~MMxjpppaphahhhgnacgwWbvmm",
"acwq086-wawJWqftpstpt5bb!bMnapate065req95t65w(w6pf",
"!!W!/^Q!^__[`IWLKFZSAKPE`W__WW~R!!^!^^!_'RYS^{YPW(",
"SW`LGKKLFGDPIKQ{!!~!!!!R^WIE`)MNnMnMNU[WYWRRYY!WPP",
"gjI4re:8yttyeiM'5ijkxkeetthtYc#vvNcc+N^=cm0hMbbMbb",
"ASIFKGPNAAAZVmS(MxxMxxte8wjyLAtZMNSSNc/yBCMbMACCAM",
"VAKAKAMmMAMMMpZ/MSMxxkssalh5GAhMvMMZZM~pMMMFbbmMMC",
"MKKMSACMMMxxmxM/kMMkktrlptptIFsmMMMZnM/tlBMNMmANmC",
"BFKFVVMBMhkmvkM)hMNmtpkettt-LLpnMMMMMN/lmZMMAMAMmm",
"mIFMAMMmnhkpktM_bMMMmjhppt5%LDsnmMNMMS/ekmMMAMCMmm",
"MLCMCMmxkhchkeM_cMZnxcittt5*KRenmmMMMG!>kkcMMMMMmm",
"lFb4blkktptte:m)apMAlk53*%=+DRb4bmMmMG(gMMMcMmmmCm",
"T!!TTYEIDIKREU(`!^Q^^RLLPRWY`_^!(((^/)['[`[__(!~~W",
"JFGKLE(bAMMcjnmZNMn)WNLIKSSSAAI_nMNMADKNNSZJMK_MCF",
"BCbmpNS t>t,:*:::,%!Nthhahc6e1EG+vmbhtjjllkkcpE4me",
"CCBkcGZ#t>55::5>963WHnMcccgcMfWJtgMMccvMMZAAMA^lAm",
"mCmmrGCq:q:>e>:4rqe~BekkklelmeWPhmcZnZmZMvtctc/bMm",
"rBmmmCB&:q:::>44:Bq~r4rBkkeekf~FvNhhcvvkh:,htc!MZm"
};
