/* XPM */
static char *_8cf798c6de84cc6dfd8508240d012fcbMe4OqjETcf8ldTD[] = {
/* columns rows colors chars-per-pixel */
"16 16 33 1 ",
"  c None",
". c black",
"X c #010000",
"o c #000100",
"O c #010100",
"+ c #000001",
"@ c #010001",
"# c #000101",
"$ c #010101",
"% c #FE9800",
"& c #FF9800",
"* c #FE9900",
"= c #FF9900",
"- c #FE9801",
"; c #FF9801",
": c #FE9901",
"> c #FF9901",
", c #FEDA48",
"< c #FFDA48",
"1 c #FEDB48",
"2 c #FFDB48",
"3 c #FEDA49",
"4 c #FFDA49",
"5 c #FEDB49",
"6 c #FFDB49",
"7 c #FEEE4C",
"8 c #FFEE4C",
"9 c #FEEF4C",
"0 c #FFEF4C",
"q c #FEEE4D",
"w c #FFEE4D",
"e c #FEEF4D",
"r c #FFEF4D",
/* pixels */
"     XXXXXX     ",
"   XX111565XX   ",
"  X51->->>>55X  ",
" X15>111515>55X ",
" X1>11ww0,1105X ",
"X5>111w1,>11505X",
"X5>1www111w1505X",
"X5>1w111115>505X",
"X4-1w166111-1w1X",
"X4-41-111->-1w1X",
"X1-111q61-111q1X",
" X1-161:--11q1X ",
" X51q666115w11X ",
"  X16qqqq0w56$  ",
"   XX666661$X   ",
"     X$$$$$     "
};
