/* XPM */
static char *_98ff3bf04884e2890823f0790d409e0uEGV2FBs1ZEe5khe[] = {
/* columns rows colors chars-per-pixel */
"29 26 113 2 ",
"   c #FF000000",
".  c #FF000000",
"X  c #FF000000",
"o  c #FF000000",
"O  c #FF000000",
"+  c #FF000000",
"@  c #FF000000",
"#  c #FF000000",
"$  c #FF000000",
"%  c #FF000000",
"&  c #FF000000",
"*  c #2F0F1C",
"=  c #330F1D",
"-  c #3D0A1E",
";  c #23161D",
":  c #2E121D",
">  c #3F0D26",
",  c #2D1620",
"<  c #231D21",
"1  c #2C1D25",
"2  c #341522",
"3  c #3B1323",
"4  c #341D27",
"5  c #3B192A",
"6  c #44001B",
"7  c #430D23",
"8  c #4B0823",
"9  c #430B28",
"0  c #550524",
"q  c #5E072A",
"w  c #590A29",
"e  c #411526",
"r  c #4C1228",
"t  c #782845",
"y  c #73334B",
"u  c #7F334F",
"i  c #7C3150",
"p  c #892B4D",
"a  c #80304D",
"s  c #942E55",
"d  c #813154",
"f  c #923D5E",
"g  c #9C3A61",
"h  c #A83762",
"j  c #AE3B65",
"k  c #AF3E69",
"l  c #B43E69",
"z  c #904A64",
"x  c #9C4967",
"c  c #AF6C8B",
"v  c #B26C8E",
"b  c #BF6B8C",
"n  c #AC7187",
"m  c #A67588",
"M  c #A97488",
"N  c #A97A8C",
"B  c #C76890",
"V  c #FF8EBA",
"C  c #EB9EBB",
"Z  c #FF96BF",
"A  c #F39ABB",
"S  c #FF98BF",
"D  c #DDA5BE",
"F  c #DCAABD",
"G  c #E5A4BD",
"H  c #E2A8BE",
"J  c #FF96C1",
"K  c #F69FC1",
"L  c #FE9BC3",
"P  c #FF9BC9",
"I  c #E7A5C1",
"U  c #EDA4C1",
"Y  c #E5ABC1",
"T  c #EAAAC5",
"R  c #EEA8C4",
"E  c #EDABC7",
"W  c #E8ACC5",
"Q  c #EAA8C3",
"!  c #F1A2C2",
"~  c #F4A5C2",
"^  c #F7A4C2",
"/  c #F5A6C3",
"(  c #F6A2C6",
")  c #F2A7C5",
"_  c #F6A7C4",
"`  c #F6A7C6",
"'  c #F8A1C1",
"]  c #FAA0C3",
"[  c #F9A2C2",
"{  c #FFA0C3",
"}  c #FFA1C3",
"|  c #FFA2C4",
" . c #FFA3C5",
".. c #FFA1C7",
"X. c #FBA4C6",
"o. c #FDA4C4",
"O. c #FFA4C5",
"+. c #F2A9C6",
"@. c #F3A8C7",
"#. c #F0ABC7",
"$. c #FAAAC7",
"%. c #FFA1C8",
"&. c #FFA5C8",
"*. c #FAABCA",
"=. c #E2B1C4",
"-. c #EBB0C6",
";. c #EAB3C8",
":. c #E4B9CA",
">. c #F1B1C9",
",. c #FDA6D0",
"<. c #FFCDE2",
"1. c #FFCBE7",
"2. c #FFD1ED",
/* pixels */
"                                                          ",
"                                                          ",
"                                                          ",
"                                                          ",
"                                                          ",
"                                                          ",
"                                                          ",
"            O ; 1 < . . , 4 ; <                           ",
"            3 F Y Y 7 - #.R H =.2 1                       ",
"            3 -.( K / / A X.*.1.<.:.2 . .                 ",
"            = H A | K ' 0 ) I 8 2.C Y 3 .                 ",
"            , N *.L L L 0 Q W 8 | | _ n 3 O .             ",
"              2 C P V L 0 I T 0 L J | C ;.2 .             ",
"              : @.L l k ! R @.A h j Z O.G F 2 o           ",
"              3 U L J %.i 6 q s L L L L X.-.* .           ",
"            # 3 b %.L K ` w g L L L S ] U M 2 . o         ",
"            e z p L L | X.A L L P L ( c 3 , . o           ",
"            > y i i / C | X.L J P ,.v > & . +             ",
"            % 2 2 3 3 m U X.Z L B v 9 $ .                 ",
"              . .   . 4 - t l j d 9 & # O o               ",
"                  o     $ e x f F 5 % O                   ",
"                      o . # 6 r 5 . .     X               ",
"                      X   . # # . .           X           ",
"                                                          ",
"                                                          ",
"                                                          "
};
