/* XPM */
static char *_e83b2d3fafc4761fcb1bcd0edf0aebfkhnV0yBgQ25oDrcv[] = {
/* columns rows colors chars-per-pixel */
"78 69 82 1 ",
"  c None",
". c #201F22",
"X c #242326",
"o c #262528",
"O c #292729",
"+ c #2B2A2D",
"@ c #322C2D",
"# c #3D2D2B",
"$ c #3B312E",
"% c #2E2D30",
"& c #302F32",
"* c #3A2F31",
"= c #333235",
"- c #3A3432",
"; c #363639",
": c #38373B",
"> c #3B3A3E",
", c #5B382F",
"< c #423335",
"1 c #443B36",
"2 c #4D3E37",
"3 c #4A3638",
"4 c #473E38",
"5 c #4D3C3A",
"6 c #553F36",
"7 c #5A3B32",
"8 c #533C3D",
"9 c #593E3F",
"0 c #4D423B",
"q c #574137",
"w c #52453B",
"e c #6E4638",
"r c #61483C",
"t c #694B3D",
"y c #704235",
"u c #744D3D",
"i c #3E3D41",
"p c #403F43",
"a c #5A3F40",
"s c #414044",
"d c #4D4245",
"f c #46464A",
"g c #48474C",
"h c #49484C",
"j c #5B4446",
"k c #5C4D41",
"l c #544548",
"z c #5C4648",
"x c #50484C",
"c c #4F4D52",
"v c #524E52",
"b c #525156",
"n c #5C5054",
"m c #56555A",
"M c #58575C",
"N c #5A595E",
"B c #654546",
"V c #684647",
"C c #614F42",
"Z c #644648",
"A c #6A4748",
"S c #654849",
"D c #6B494A",
"F c #645244",
"G c #6C5545",
"H c #715544",
"J c #695456",
"K c #635B5F",
"L c #6F585A",
"P c #70585A",
"I c #5D5C61",
"U c #6D6266",
"Y c #65646A",
"T c #6C656A",
"R c #6B696E",
"E c #75696D",
"W c #6E6D73",
"Q c #706E73",
"! c #717076",
"~ c #75747A",
"^ c #78777D",
"/ c #79787E",
/* pixels */
"                                                                              ",
"                                                                              ",
"                                                                              ",
"                                                                              ",
"                                                                              ",
"                                                                              ",
"                                                                              ",
"                                                                              ",
"                                                                              ",
"                                                                              ",
"                                                                              ",
"                                                                              ",
"                                                                              ",
"                                                                              ",
"                                                                              ",
"                                                                              ",
"                                                                              ",
"                                                                              ",
"                                           ssssspssss                         ",
"                                          ssssssssssss                        ",
"                                         ssssssssssssss                       ",
"                                     ssssspssssssssppsss                      ",
"                                    sssspssssssssssssssss                     ",
"                                     ssssssssssspsssssspss                    ",
"                                      sssssssssssssssssssss                   ",
"                                       sssssssssssssssssssss                  ",
"                                      sssssssssssssssssspsss                  ",
"                                     ssssssssssssssfsssissss                  ",
"                                    ssspsssssiiisiiiiiiippss                  ",
"                                    ssssssssi:::::::::::>iss                  ",
"                                    ssssssss>=%+++%++++%=>ss                  ",
"                                    ssppissi:%+Oo+ooOOo+&:is                  ",
"                                    spi>::::;-$$-$$#<##$--;:                  ",
"                                    sp>=%+++-4wwwwq7,qqq0-&%                  ",
"                                    si>%+ooO-0wFFFteyetr0-oX                  ",
"                                    si>=%+++=4wFFGGuutrw-+X.                  ",
"                                    ssi>>:::;--0kGHHHq0$@oXX                  ",
"                                    ssppiiii:@+$0CFFFw$OoXXX                  ",
"                                   ssssssfss>=%=00www0+oXXXo                  ",
"                                  sssssssssii>::=----@oXXXoo                  ",
"                                 ssssssssspsiii:%ooooXoXXXXX                  ",
"                                 sssssssssssii:&OXX.XXXXXXoX                  ",
"                                 spsssssssssi=%OoXXXXXXoXXXX                  ",
"                                 ssssssssssi:%oXXXXXXXXXXXXX                  ",
"                                 sssspsssi>:=OXXX.XXXXoXXXXX                  ",
"                                 ssssssss>=%+oXXXX.XXXXXoXXX                  ",
"                                 sspssssi:+oXXXXOOoXXXoXXXXo                  ",
"                                sssssii>:=+X.XX+=>:+XXXXXXXXo                 ",
"                               ssssssii=++oX..o=hbh:oXXXXXXXXX                ",
"                              sssssssi:%oXXXXo+sNYMioX.XXXoXXXo               ",
"                             spssssssi:+oXXX+=sbYWNiO.XXXXXXXXX               ",
"                            ssssssssss:+X..X=fmY!WN>o..XoXXXXXX               ",
"                           sssssssssss:%oXX+imW!~WMi+oXXXXXXoXX               ",
"                           ssssssssssi:%o+=sbY!//!Ybs=+oXXXXXXX               ",
"                           spsspssssss:+O=gNYW~^^!WYNh:OXXXoXXX               ",
"                           ssssssssssi=++>bYWWWWWWWWYb:OXXXXXoX               ",
"                           sisssssssfi:%O:gmIImMmmMMmg:O.XoXXXX               ",
"                           ssssssssssi:+o+:>iii>i>ii>=+XXXXXXXX               ",
"                           ssssssssssi:%oXoOoo++O%++++OoXXXXXXo               ",
"                          sssssssssssi:%XXX.X.XO=:ii>:=+OOXXXXX               ",
"                         sssssssssssss:%oX.XX.X=fmIImcs:&+XXXXo               ",
"                        sspssssssssssi:%oXXX.XO>mYWWRIcs;+oXXXX               ",
"                        pssssssssssi>:%+XXXXX.O>vUEEUKbs:+oXXXX               ",
"                        ssssssssssii=%+ooXXX.XX;lJLLJJhs:+XXXXX               ",
"                        sssssspspsi:%oXXXXXXXXO*aZDDZzlp:%oXXXX               ",
"                       ssspsssspi>:%+XXXXXXoO@*3aBVVBjap:=%%oXo               ",
"                      sssssssssp>=++oXXXXXXX@<8aaBVBZjfpii:&OoX               ",
"                     spsspsssssi>&oXXXXXXXXO*3BBAVVAZjdpsii:%oX               ",
"                     sssssssssss:+XXXXXXXXXo*8BAAVAABjdppss:%oX               "
};
