/* XPM */
static char *_688e3da4b6b4dbfedb59c3aee4ae7472sI2QvpNhmUrVwCb[] = {
/* columns rows colors chars-per-pixel */
"22 21 119 2 ",
"   c #FF000000",
".  c #FF000000",
"X  c #FF000000",
"o  c #FF000000",
"O  c FF0000000",
"+  c FF0000000",
"@  c FF0000000",
"#  c FF0000000",
"$  c FF0000000",
"%  c FF0000000",
"&  c FF0000000",
"*  c #2C0B1C",
"=  c #340B1D",
"-  c #24151B",
";  c #2C131D",
":  c #2D1422",
">  c #2D1C22",
",  c #341524",
"<  c #3A1422",
"1  c #321D24",
"2  c #381A24",
"3  c #3C1728",
"4  c #321D2B",
"5  c #362128",
"6  c #44061F",
"7  c #4F001C",
"8  c #52001D",
"9  c #470722",
"0  c #4D0723",
"q  c #420F23",
"w  c #4F0923",
"e  c #430E28",
"r  c #4F0F2A",
"t  c #500420",
"y  c #590423",
"u  c #500F27",
"i  c #451127",
"p  c #742842",
"a  c #76324D",
"s  c #7B304F",
"d  c #792F50",
"f  c #7C3452",
"g  c #8F1949",
"h  c #852950",
"j  c #8E2E54",
"k  c #863556",
"l  c #8C3351",
"z  c #963055",
"x  c #B12D5C",
"c  c #9D3F61",
"v  c #AE3761",
"b  c #AC3B67",
"n  c #B43463",
"m  c #B43B66",
"M  c #B03F6B",
"N  c #A86C86",
"B  c #A07185",
"V  c #B4728D",
"C  c #B37793",
"Z  c #B37C93",
"A  c #C5648C",
"S  c #CD638C",
"D  c #C26C8F",
"F  c #D56490",
"G  c #C47298",
"H  c #EC98BC",
"J  c #FF92BC",
"K  c #F69CBC",
"L  c #FB9ABD",
"P  c #DCA7BB",
"I  c #DBABBB",
"U  c #D5B1BF",
"Y  c #E4A6BD",
"T  c #ECA2BD",
"R  c #FF95C2",
"E  c #FE9CC3",
"W  c #FF97C9",
"Q  c #FF9CCA",
"!  c #DFAEC3",
"~  c #DEB8C5",
"^  c #E5A6C2",
"/  c #EFA3C1",
"(  c #E5ACC1",
")  c #E9A9C3",
"_  c #ECA8C1",
"`  c #EFABC2",
"'  c #E9ABC4",
"]  c #ECAAC5",
"[  c #EEACC7",
"{  c #F3A3C0",
"}  c #F6A3C1",
"|  c #F0A4C2",
" . c #F1A7C2",
".. c #F5A5C0",
"X. c #FF000000",
"o. c #FF000000",
"O. c #FF000000",
"+. c #FBA0C1",
"@. c #FBA2C2",
"#. c #FCA3C3",
"$. c #FAA4C1",
"%. c #F8A5C3",
"&. c #FAA3C5",
"*. c #FCA1C4",
"=. c #FFA0C4",
"-. c #F8A4C5",
";. c #FFA4C5",
":. c #FFA5C7",
">. c #F5ABC6",
",. c #FFA1C8",
"<. c #FFA5CC",
"1. c #FFA7CF",
"2. c #F4AECA",
"3. c #E8B3C7",
"4. c #E4B4CC",
"5. c #FFCEE1",
"6. c #FFCDE6",
"7. c #FFD4EC",
"8. c #FFD8E9",
/* pixels */
"                                            ",
"                                            ",
"                                            ",
"                                            ",
"                                            ",
"          o o       - ; 2 >                 ",
"            o O - 5 ~ I ( ( = 4 % .         ",
"X       o o & = U 8.5.` T  .) ! = &         ",
"        o o i ) Y 7.6...%.{ T ) ^ i .       ",
"      o   : f D -...K $.8 >.2.0 { V 3 . o   ",
"        : 4.H Q &.K L L w ( P 9 &.O.B : .   ",
"      . , ^ 1.R E <.E E 0 Y 3.u E E Z , .   ",
"      . * C E W E E x n E %.T ..b Q N :     ",
"      . % e h S R J Q R J $.y E R F 9 &     ",
"  o o .   * G E Q ,.J E L :.K E W g r # .   ",
".       o 4 d A =.E E =.$.%.L E n M ^ , .   ",
". . X     4 a l S A / [ ` { S m m z a 2 .   ",
"    X X   O e f k f e = = e t z l p 6 $     ",
"          . % , * , .   . . # 2 < 2 #       ",
"                                 .          ",
"                                            "
};
