/* XPM */
static char *_4ca60f715594ccdc8d0fe8a48a04506LsMCDntSW6gDOXaA[] = {
/* columns rows colors chars-per-pixel */
"24 22 114 2 ",
"   c #FF000000",
".  c #FF000000",
"X  c #FF000000",
"o  c #FF000000",
"O  c #FF000000",
"+  c #FF000000",
"@  c #FF000000",
"#  c #FF000000",
"$  c #2E071A",
"%  c #2F0F1C",
"&  c #370A1F",
"*  c #201116",
"=  c #2C141E",
"-  c #300F20",
";  c #3D0C23",
":  c #2C1720",
">  c #2D1A22",
",  c #321422",
"<  c #3B1324",
"1  c #331925",
"2  c #391926",
"3  c #391F2A",
"4  c #4A0018",
"5  c #51021F",
"6  c #450221",
"7  c #460C23",
"8  c #4A0C23",
"9  c #460E29",
"0  c #4A0E2A",
"q  c #520927",
"w  c #5B0029",
"e  c #40162A",
"r  c #401C2A",
"t  c #643B4D",
"y  c #7F2D53",
"u  c #7B3152",
"i  c #7D3A59",
"p  c #674052",
"a  c #AD1A51",
"s  c #B31B56",
"d  c #8E2F59",
"f  c #972852",
"g  c #863754",
"h  c #B32B5D",
"j  c #A23A5F",
"k  c #AB3562",
"l  c #A73F64",
"z  c #B53565",
"x  c #B93366",
"c  c #D12967",
"v  c #C73269",
"b  c #90496B",
"n  c #B36388",
"m  c #B16F8A",
"M  c #BE698A",
"N  c #B3738D",
"B  c #BF7694",
"V  c #C55F87",
"C  c #D25887",
"Z  c #E45E93",
"A  c #C4668A",
"S  c #C96694",
"D  c #C16B91",
"F  c #C96D92",
"G  c #EE9FBE",
"H  c #FA90B6",
"J  c #F796BF",
"K  c #FB95BC",
"L  c #F69CBC",
"P  c #FA9DBF",
"I  c #DDA3B9",
"U  c #D8AFBF",
"Y  c #E3A3BE",
"T  c #EF9FC2",
"R  c #FF95C3",
"E  c #F598C4",
"W  c #FE9CC3",
"Q  c #FF9DC8",
"!  c #DFA7C0",
"~  c #DDACC2",
"^  c #DDB4C5",
"/  c #ECA6C2",
"(  c #E3ACC2",
")  c #E9ABC2",
"_  c #EEAFCA",
"`  c #EBAFCB",
"'  c #F0A6C1",
"]  c #F3A7C5",
"[  c #F8A1C1",
"{  c #FAA1C1",
"}  c #FAA0C3",
"|  c #FFA1C3",
" . c #F8A1C4",
".. c #FAA3C5",
"X. c #F9A1C7",
"o. c #FFA0C5",
"O. c #FFA0C6",
"+. c #FFA2C7",
"@. c #FAA4C7",
"#. c #FEA4C7",
"$. c #F2A9C6",
"%. c #F7A8C5",
"&. c #FFA1C9",
"*. c #FFA3C8",
"=. c #FFA1CB",
"-. c #FFA3CB",
";. c #FAA4CB",
":. c #FFA0CC",
">. c #FFA6CE",
",. c #F0ABCA",
"<. c #E8B1C8",
"1. c #F9ACD0",
"2. c #FFC3E6",
"3. c #FFD0EE",
/* pixels */
".     X                   O           X .   .   ",
"    X     .             O     O     X X   .     ",
"                    o     +             O .     ",
"        .         .   . .   o . .   O         . ",
"    X     . . .   . . = 2 , , . @ .   O         ",
".           . > > : : ^ I ) Y e : # .   .     X ",
"          . 3 U <.Y N 3.L P { ' ~ : .   .       ",
"          . = ( G *...2.| #.P ' ( ^ : o . .     ",
".         . , ( W W [ [ | [ 8 ~ ( ; < # . o     ",
"      X . o ; N A >.W W W L 7 ( ! 9 ~ , o       ",
"        . o $ ` ] K Q R R Q 5 ( _ 6 ` ; # o     ",
"          . < T @.*.R R h z P $.T 1.b ; o     X ",
"      X     ; B @.J R :.Q R #.P w ;.n 0 @ o     ",
"          # 0 V R Q W *.K R #.R :.E D i 1   X   ",
"          , k s Z R K W W #.H Q Q S d u & .     ",
"          < x c a C F $./ / %.M M y u 9 1       ",
"          < k v R f 6 1 : > : 1 t t r = . .     ",
"          , g j l 4 @         . > : * .         ",
"          o : , , #   O   .     . . @ . .       ",
"    .               O             . .           ",
"  O     O           O         O                 ",
"                                                "
};
