/* XPM */
static char *_3b5f89d48aa4a43f8f103376b9b54das2vmcd8NqzdO373T[] = {
/* columns rows colors chars-per-pixel */
"50 47 109 2 ",
"   c None",
".  c #1D1C1E",
"X  c #221B14",
"o  c #1F1E21",
"O  c #201F22",
"+  c #1E2023",
"@  c #232225",
"#  c #282422",
"$  c #272629",
"%  c #2A2629",
"&  c #2B2A2D",
"*  c #322C2C",
"=  c #382D2F",
"-  c #3E3123",
";  c #3B342E",
":  c #2E2D31",
">  c #322E32",
",  c #333235",
"<  c #3A3235",
"1  c #3F3937",
"2  c #363539",
"3  c #383739",
"4  c #3B3A3D",
"5  c #412D2A",
"6  c #42302C",
"7  c #453537",
"8  c #443A32",
"9  c #493638",
"0  c #543C3E",
"q  c #544639",
"w  c #5F4F3E",
"e  c #744033",
"r  c #774837",
"t  c #7A4C3A",
"y  c #665139",
"u  c #3E3E41",
"i  c #413F43",
"p  c #4C3D40",
"a  c #5A3F40",
"s  c #414044",
"d  c #4A4246",
"f  c #454449",
"g  c #48474C",
"h  c #4B484D",
"j  c #5D4345",
"k  c #574C42",
"l  c #56474A",
"z  c #5D4648",
"x  c #4D4C51",
"c  c #554C50",
"v  c #535257",
"b  c #56555A",
"n  c #58575C",
"m  c #5B5A5F",
"M  c #634546",
"N  c #684647",
"B  c #664749",
"V  c #694749",
"C  c #6C4A4B",
"Z  c #744D4E",
"A  c #63554A",
"S  c #6C5B48",
"D  c #725B42",
"F  c #6B575A",
"G  c #6D585B",
"H  c #755153",
"J  c #7E5355",
"K  c #705A5D",
"L  c #786047",
"P  c #5D5C62",
"I  c #615E64",
"U  c #775E61",
"Y  c #626167",
"T  c #696362",
"R  c #65656A",
"E  c #7E6165",
"W  c #706968",
"Q  c #6D6B72",
"!  c #716F74",
"~  c #727176",
"^  c #747379",
"/  c #79797C",
"(  c #825557",
")  c #855759",
"_  c #87585A",
"`  c #896347",
"'  c #856449",
"]  c #866A4B",
"[  c #8B6C4D",
"{  c #906F4E",
"}  c #848486",
"|  c #84838B",
" . c #89898B",
".. c #898790",
"X. c #8D8B94",
"o. c #908E97",
"O. c #918F98",
"+. c #95939B",
"@. c #9B99A1",
"#. c #A3A2A6",
"$. c #A9A7AE",
"%. c #A8A8A9",
"&. c #BFBFC0",
"*. c #C2C2C3",
"=. c #D0D0D1",
"-. c #E0DFE0",
";. c #E5E5E5",
":. c #EFEEEF",
">. c white",
/* pixels */
"                                              s s i s s s                                           ",
"                                            s s s s s s s                                           ",
"                                          s s s s u 4 u u 4                                         ",
"                                        s s s s s 4 & % $ & $ @                                     ",
"                                        s s s s 3 1 q q q q * @                                     ",
"                                        s s s u & ; L ] [ ' 8 +                                     ",
"                                    s s i s s u : . X y [ t 6 @                                     ",
"                                      s s s s u : # - t ` e = @                                     ",
"                                        s s s u : 1 L [ ] r 6 @                                     ",
"                                        s s s s 4 3 ; S { ' 8 +                                     ",
"                                        i s s s s 4 , w S w ; @                                     ",
"                                          s s s s i u u 3 $ @ @                                     ",
"                                        s s s s s 4 & & % @ @                                       ",
"                                      s s s s u 4 : @ @ @ @ @                                       ",
"                                    s s s s s i : @ @ & % $ @ @                                     ",
"                                    i s s s s s & + @ h v 4 & @ @                                   ",
"                                    s s s s u 2 $ : x Q / I u : @                                   ",
"                                  s s s s s 3 $ o g ..+.O.X.P 2 $                                   ",
"                                  i i s s s 3 @ o g ..+.+.o.P 2 $ @ @                               ",
"                                  s s s s 4 : $ 4 Y X.+...Q P f % @ @                               ",
"                                  s s s u : O & Q O.o.o.Q 2 P P & @ @                               ",
"                                  s s s u : o & ! @.o.P f b Q I 4 % @                               ",
"                                s i s s u & @ , P / Q g x ! ^ R f & .                               ",
"                              s s s s s u & : u f u : n ! ~ ^ R f 2 ,                               ",
"                              s s s s 4 : $ : i u u u R | ! Q P i  .=.>.>.>.                        ",
"                              s s s s 2 @ + : i u f P | @.@.#.@.} %.*.&.-.>.                        ",
"                              s s s s 2 @ @ : u u v | ..$.;.:.:.;./ : ,                             ",
"                              s s i f 3 @ @ @ & & u f f b Q ~ / } g . o                             ",
"                              s i i 4 , $ , 4 4 3 3 * < , * , 2 4 : @ @                             ",
"                              s s i & @ % b ! Q Q T A T R A T I s : @ @                             ",
"                              s s i & + & m / ^ ^ ~ W ~ ~ W ~ R f : @ @                             ",
"                              s s i & @ & m ^ ~ ~ ^ ^ ~ ~ ~ ! I f : @ $                             ",
"                              s s u : @ % m ~ ~ ! ! ~ ^ ~ ! G z i : @ @                             ",
"                              s s u & @ $ l K F h c E _ U F C a , , , $                             ",
"                              s s u : O % 0 M 0 * > C J J C C 9 $ 2 u @                             ",
"                              s i u : @ % 0 0 % O @ : C ) ( Z 0 % , u $                             ",
"                                s i 4 : % 0 0 $ @ O @ B ) ) Z 0 % 2 u $                             ",
"                                  s s 2 % 9 9 % @ @ % B _ ( Z a : , 2 %                             ",
"                                  s s 2 $ $ % @ @ @ % B ) ( Z j u > $                               ",
"                                  i s 3 # @ @ @ @ @ @ < a ( Z j i : O                               ",
"                                  d s 2 @ @ @ @ @ @ $ + 7 J Z j f : @                               ",
"                                  j d 3 @ @ $ @           J Z j i                                   ",
"                                  N j 0                   ) Z M                                     ",
"                                  j j j                   H B a                                     ",
"                                  s > %                   d < %                                     ",
"                                  u & @ @                 u : @ @                                   ",
"                                  u : @ @                 i : @ @                                   "
};
