/* XPM */
static char *e39307cf6da1499b8aa9fd26f77da6f9FBy4k4NqEN7x6Eqy[] = {
/* columns rows colors chars-per-pixel */
"50 50 163 2 ",
"   c #191B17",
".  c #1B1D1D",
"X  c #1F211F",
"o  c #1E1F22",
"O  c #1F2021",
"+  c #1F242A",
"@  c #232425",
"#  c #262826",
"$  c #25252A",
"%  c #29262C",
"&  c #27292A",
"*  c #2A2B2D",
"=  c #2E302F",
"-  c #2C2D32",
";  c #302F36",
":  c #302E39",
">  c #2F3033",
",  c #2F353B",
"<  c #323336",
"1  c #363837",
"2  c #34353A",
"3  c #38373F",
"4  c #37383B",
"5  c #393A3D",
"6  c #3E403F",
"7  c #363641",
"8  c #393742",
"9  c #353A40",
"0  c #3C3C42",
"q  c #3E3E48",
"w  c #423E45",
"e  c #423F4A",
"r  c #3F4045",
"t  c #3E434A",
"y  c #424146",
"u  c #44444B",
"i  c #49454D",
"p  c #46484D",
"a  c #4A494E",
"s  c #474651",
"d  c #494652",
"f  c #454851",
"g  c #4C4D53",
"h  c #4D4E53",
"j  c #4A4854",
"k  c #4B4954",
"l  c #494B54",
"z  c #4A4A54",
"x  c #4B4B54",
"c  c #4B4B55",
"v  c #4B4B56",
"b  c #4C4954",
"n  c #4C4955",
"m  c #4D4B56",
"M  c #4A4C54",
"N  c #4B4D56",
"B  c #4C4D54",
"V  c #4C4C55",
"C  c #4C4D55",
"Z  c #4D4E54",
"A  c #4D4E55",
"S  c #4E4E54",
"D  c #4E4E55",
"F  c #4C4C56",
"G  c #4D4C56",
"H  c #4D4D56",
"J  c #4C4C57",
"K  c #4D4D57",
"L  c #4E4C57",
"P  c #4C4E56",
"I  c #4D4E56",
"U  c #4F4F57",
"Y  c #4B4B54",
"T  c #4E4D58",
"R  c #4F4D58",
"E  c #4E4E58",
"W  c #4F4E58",
"Q  c #4F4F58",
"!  c #4E4E59",
"~  c #4F4F59",
"^  c #4E4E5A",
"/  c #4F4F5A",
"(  c #4F4F5B",
")  c #4E4E59",
"_  c #514F54",
"`  c #504E56",
"'  c #504E59",
"]  c #504E5A",
"[  c #514F5A",
"{  c #504E5A",
"}  c #4F5055",
"|  c #4E5058",
" . c #4F5058",
".. c #505056",
"X. c #505156",
"o. c #505057",
"O. c #505157",
"+. c #525357",
"@. c #545256",
"#. c #525457",
"$. c #515157",
"%. c #505058",
"&. c #515158",
"*. c #525259",
"=. c #50505A",
"-. c #51515A",
";. c #50505B",
":. c #51515B",
">. c #52505A",
",. c #52505B",
"<. c #53515B",
"1. c #53525B",
"2. c #52535B",
"3. c #53535B",
"4. c #51505C",
"5. c #51515C",
"6. c #52515C",
"7. c #53515C",
"8. c #52525C",
"9. c #53535C",
"0. c #52525D",
"q. c #53535D",
"w. c #54525D",
"e. c #55535F",
"r. c #52555E",
"t. c #54555C",
"y. c #54545D",
"u. c #56565D",
"i. c #54545E",
"p. c #55545E",
"a. c #54545F",
"s. c #55545F",
"d. c #55555F",
"f. c #56565F",
"g. c #53525C",
"h. c #57585F",
"j. c #58585F",
"k. c #525761",
"l. c #535761",
"z. c #565561",
"x. c #575760",
"c. c #565661",
"v. c #585662",
"b. c #575861",
"n. c #555961",
"m. c #585962",
"M. c #5A5A63",
"N. c #5C5D62",
"B. c #5A5A64",
"V. c #5B5B65",
"C. c #5C5C65",
"Z. c #5D5E65",
"A. c #5B5A64",
"S. c #5D5C6A",
"D. c #625F6E",
"F. c #5D6269",
"G. c #606167",
"H. c #616169",
"J. c #63636D",
"K. c #646470",
"L. c #666574",
"P. c #636372",
"I. c #696873",
/* pixels */
"u i i i _ 1 b e.:.:.] w.<.w.w.[ w.s Z - d | P z Z R R R P | & 5 Z s z z z R P 5.z.f u u z e - i w e ",
"w y i i i 1 ` e.] <.] ` ` n R R n s 3.< p 5.z z R 5.| P z Z $ r :.z 5.R | R s s R z.z z z q % i w e ",
"y w i e i 1 b <.b ` ] Z n z s u i b #.* u | n Z  .5.5.R P b.- 3 f.5. .P | k.[ z f j R R z.s @ i w w ",
"i i i e ` 1 a w.:.:.f.:.] R n w.z.f.N.* u Z :.O.:.Z :.a u #.@ 5 H.| | } R  .z.z.5.J P u n [ @ O.i i ",
"* # @ # * o 1 < > > > * * * : 2 - - @ . 2 5 5 < * - $ $ O @ X @ < < 3 2 1 4 0 0 q 1 > * = 1 . 2 1 ; ",
"g P Z Z i u u e r 0 * r 4 4 7 3 u z Z P Z } O.g u r @ 2 3 < 1 1 1 5 3 3 4 5 4 5 4 4 4 * * 0 u u i _ ",
"r.l.l.r.f.m.v.:.Z.u 5 P.R  .V.r.v R 5.z.z.V.B.m.n.#.$ 3 } g g a g g g n Z Z } Z } :.:.z s L.B.B.A.m.",
"g g d s f z z s Z r 2 k.u p d | 5.z R  .5.Z 5.r.m.#.& > a a u p u a a s n z n z z z Z z 0 z.z P d b ",
"d 5.R n z s s s :.y < r.p a a P J u j ^ z.P z 5.r.3.& , i d u a a a a i d b n n L Z Z d 2 z.R R #.5.",
"u d Z R z z f z O.r 2 l.a a a z R J J  .z R 5.k.:.O.& > Z i u u a a u a d d s z z n R f 7 5.Z :.5.| ",
"z s d R z z z v #.r 2 n.a g P R P P R R 5.|  .z.d 0 & 2 _ u a p a y u i d p d a s s P u 2 J R :.:.:.",
"z J z R z z z R f.5 2 F.a g | | | J Z R :.:. .R Z u @ 2 Z p a p u u i u y p p p a i g 0 2 R :.] ] ] ",
"z R z z z z z Z h.y 2 N.p a Z R 5.5.f.5.R | R z | s O 2 } u a g i u y y u y u u u i g 1 > 5.R ] ] :.",
"5.5.k. .5.5.f.B.N.r > H.} } :.| | 5.R z.z.z.R P z s $ 2 :.a #.#.f.Z Z :.a p u u g g ` 5 - N.z.f.w.f.",
"0 u z t 0 r 1 - # . & r 4 1 1 2 2 < < 2 < 2 < , @ O . @ - < > 5 0 1 < 2 1 < 1 - - 5 5 @ X 6 5 0 0 5 ",
"7 7 8 q 5 < 1 0 & 0 0 5 5 4 3 5 2 2 3 3 3 0 $ - u u s d v f z f f p < & u u u 5 0 1 4 0 q 3 3 < # * ",
"Z.z.5.:.:.j.:.Z.3 z.f.w.:.:.5.w.#.#.} } :.a & } b.J 5.z.^ R R ^ :.m.5 0 P.z.z.:.g 5.f.f.B.z.Z.Z.@ m.",
"u u u u u :.s r - f.u u i n z L J R } P R n & Z R f f s s u u f | b.y 5 f.f P :.5.Z u u u u u R $ u ",
"a a a i u u u a * #.z s n Z L L L L Z d n ^ - R 5.Z s R z u s d z.S.u 3 b.P n z.h.a g z z z d g $ 0 ",
"a g Z s d z w u & 5.:.R n s b L d d z z v v - R 5.R z P d i s P | S.u > r.z :.V.g } g R n Z d g @ 5 ",
"f.f.<.` ] ' u a $ r.f.] b s e b L L L L L ^ - 5.k.R Z P z d z L :.v.q - z.Z z.z.g } Z ] ] n g Z $ < ",
"C.D.A.A.f.v.s n $ R v.Z s s e n n L z v z z., z.f.5.R Z L z z R 5.z.t $ Z 5.B.z.g ..` Z ` ` ..3.- , ",
"D.D.D.C.S.v.B.:.O Z S.R L L [ n z L v J ^ z.3 :.f.f.#.:.} :.:.5.r.B.s $ z.S.P.[ R [ [ ' n n g #.< - ",
"z.v.v.v.v.v.S.f.. u D.z.v.z.7.7.z.B.v.v.z.C.< a p 0 a p u y r r q 0 4 - ^ v.Z.z.f.w.z.[ <.d y h 1 $ ",
"@ @ $ & & - < * X - u 7 0 7 2 - : 2 & & % @ X % @ o O $ $ $ @ O @ @ o . $ - < 1 < < & & # . @ > - & ",
"] n u | J z z z z f R 0 . q q q e 0 5 0 5 8 3 5 # u Z.5.5.z z z z z f s 0 0 y u u s u p y o p R :.:.",
"d Z R R P R R R R J z.t * j.] R n n b a i i i i * 5.K.5.5.R z R P J Z d a } g Z z Z | R p $ Z z d d ",
"] R R j j s z Z R P v r < a d Z ' s u i i i i i % u z.R 5.5.| z z R P d p u p p z z d Z a - Z | :.:.",
"| R R z z J P z s z R u : b ' [ ' b i d b b e i $ 7 B. .5.R P u s R f s i u f z 5.J z d d 2 l R | :.",
" .R | J z J z z s u J u 2 b L b n s d i e b e i % q z.s d P P j s P z z z n z J R R | } } > p f R } ",
"R J P R R | P s n R s 8 7 ' b ' ' b b e e e u i % u R u f P J R J P z s z d d z P R | } } 3 u f Z R ",
"j j j z | 5.5.R d z 5.q : ' ' ' b b ` b d e i i % 0 u z z J | J R R ] L L L z R J Z } g } 0 u f j j ",
"f d d g | | R Z P z n w ; O.n ` Z n _ n a s i i % u u d z Z R R Z R J Z z z z P d P d g } > f s s s ",
"P d } #.#.#.r.h.#.Z O.3 - @.Z ` ` ] ] R [ <.a a * i u p P P Z :.:.#.:.:.} } } :.:.O.:.:.O.# O.O.g g ",
"* * - * & & = * & @ @ . X < < 4 5 0 w 0 w 4 1 < . - @ $ - - & - * * & * & & * $ @ > < 0 &   < 1 - * ",
"0 - o 5 3 3 3 4 0 9 3 1 2 5 -   * * & * * * - - * - < < O $ u u p u p u t 2 . - < - > > < < * - < 1 ",
"g b 2 h.| :.h.:.:.] | :.' L u @ :.R z n d n L ] :.| z ^ 2 d S.f f t f f F.t & m.d s O.b i a i u a a ",
"y 0 2 0 3 5 5 y r r q q e u 0 @ u s s s d s ] w.5.R z R 1 r J t u t 0 0 t f & :.e e u a y y y y y y ",
"y r 4 y 5 r y p y y u u u Z w $ u 0 s s s n ] L Z n z 5.3 q J u s u u e e u % ` u u u y g a u u u y ",
"u 5 5 y 0 y y u u u s s s d u $ b u u n n ] Z n R L R 5.2 0 R u u u u e e u # n s e u y y u y y i y ",
"u 0 5 y y y u u u n n s s n u $ g y t d R R n ` ] ] 5.v.4 5 R p u u u u u y $ Z s e u u y u y u i i ",
"i 1 0 y 0 u u i s z z n n ] u $ a u u u s z n ' ` ] w.C.4 3 R p i u y u u 0 $ :.d s u u y y y u i i ",
"u 1 y u y u i d n z d z d 5.u @ d u q s s d L ' ] [ r.B.3 >  .s i i u u e 8 - 5.b b s u u u y u i i ",
"b 0 i u.a g b n :.Z R 5.5.z.u $ Z Z u r n b w.f.A.A.N.H.9 > a 3.g p u p u 3 & g u u u s u i a i w i ",
"; * - ; ; < ; 2 7 2 3 < < 2 @ O = & = & & > 4 4 1 > = < X @ & * @ # # & & @ . O . O . @ @ # * % % - ",
"3 0 0 5 5 ; % i q u u s f f u e t u u + - t 4 2 3 0 0 0 q q < $ p u r u q 9 3 y u 0 q 9 y 0 @ u w 6 ",
"e w i i _ w 0 I.^ z.5.z.v.B.v.v.v.z.V.* t | z z J z f | :.h.> 3 Z.f f z J J z z d j j j s Z : 3.i _ ",
"w w e b i 3 q S.[ z.w.r.f.f.w.z.5.| r.- 9 f u s s s g d u P - 3 5.z u u s s f u u t q q u q * b w i ",
"i w i i _ 5 w @.v.@.v.e.e.e.v.e.@.@.<.% e [ b b n b ' b s ` - 1 z s f e u e u e u f L f 5.s $ i u i ",
"_ e i i i w e S.v.@.e.v.v.e.e.e.v.e @.% _ w.` e b b ' ' b O.* 0 d t z z s f f f L z.z.L R s * u w i "
};
