/* XPM */
static char *result[] = {
/* columns rows colors chars-per-pixel */
"64 96 107 2 ",
"   c #88AB1D",
".  c #90B41F",
"X  c #8AAC24",
"o  c #8DAD2B",
"O  c #91B422",
"+  c #96BC20",
"@  c #98BD26",
"#  c #93B52B",
"$  c #97BB2A",
"%  c #98BC2B",
"&  c #8FAE35",
"*  c #95B533",
"=  c #97B931",
"-  c #9ABC34",
";  c #96B539",
":  c #98B53E",
">  c #9BBC3B",
",  c #A0C52D",
"<  c #A5C92E",
"1  c #A3C635",
"2  c #A5C932",
"3  c #A3C53C",
"4  c #A6C839",
"5  c #97B446",
"6  c #99B643",
"7  c #9DBB43",
"8  c #96B04C",
"9  c #9AB54C",
"0  c #9EBB4B",
"q  c #98AE5F",
"w  c #9BB553",
"e  c #9EB951",
"r  c #9EB75B",
"t  c #9FB85A",
"y  c #A1BE4B",
"u  c #A1BC54",
"i  c #A2BB5C",
"p  c #99AD6A",
"a  c #9EB366",
"s  c #9EB26B",
"d  c #9CAE74",
"f  c #9CAC7C",
"g  c #A0B763",
"h  c #A4BB63",
"j  c #A2B76B",
"k  c #A5BB6B",
"l  c #A9BF6D",
"z  c #A2B675",
"x  c #A6BA72",
"c  c #AABE76",
"v  c #A4B57D",
"b  c #A7B97B",
"n  c #A9BC7B",
"m  c #A5C542",
"M  c #AAC947",
"N  c #A5C34D",
"B  c #A8C54C",
"V  c #A5C155",
"C  c #A8C451",
"Z  c #A6C15B",
"A  c #A9C458",
"S  c #A7C063",
"D  c #A9C164",
"F  c #ADC36C",
"G  c #B1C96A",
"H  c #ABC073",
"J  c #AEC27A",
"K  c #B0C571",
"L  c #B3C876",
"P  c #B1C57E",
"I  c #9DAB84",
"U  c #9EAA8D",
"Y  c #A5B585",
"T  c #AABB84",
"R  c #A5B38B",
"E  c #A9B78B",
"W  c #ABBA8C",
"Q  c #A7B393",
"!  c #A8B397",
"~  c #ADBA94",
"^  c #A8B399",
"/  c #AFBA9C",
"(  c #B0BB9E",
")  c #AFBAA0",
"_  c #B0BAA3",
"`  c #AFC081",
"'  c #B1C387",
"]  c #B5C883",
"[  c #B4C48B",
"{  c #B8CA8B",
"}  c #B5C394",
"|  c #B6C19C",
" . c #B9C79B",
".. c #BECC99",
"X. c #B7C1A2",
"o. c #B8C3A5",
"O. c #BBC8A1",
"+. c #BAC2AE",
"@. c #BDC9AB",
"#. c #BFC9B2",
"$. c #C2CEA2",
"%. c #C5CFAD",
"&. c #C5D0AD",
"*. c #C1CAB7",
"=. c #C9D1B7",
"-. c #CBD2BD",
";. c #CDD3C3",
/* pixels */
"+ . . + . + + < + + . . + + . + . . . . + + + + < . + + + + + . + . + @ # 0 k T _ _ _ _ _ _ _ _ _ _ _ _ _ _ _ _ W j i 0 @ + + . ",
"+ + . . . . + + < + < + + + + + . + + . . . + + . < + < + . . + + 7 # * 0 w ~ ) _ _ _ _ ;._ _ _ _ _ ^ _ _ ;.) U R X.W B @ b O + ",
". . . + + . + . + + +   + . + < . + O @ + O + + . + + + . . + . . w r T @ t E ) _ _ ^ U _ _ U _ _ _ _ _ _ _ _ ) ! f w a W j = O ",
". + . < + + . + . . .   + . + , + O M r @ + . + + + . + . + < . . , x ! ) W Y ~ #._ _ _ _ U ^ _ _ ;.;._ _ _ _ _ ~ ( ~ W [ > B + ",
"+ < < + + . + + @ > O @ @ @ + + O % j } 3 , + O + . . . + . < < - G Z W ^ I / ) _ _ _ ;._ _ _ _ _ _ ^ _ _ _ _ *._ _ ~ T - T D 2 ",
"+ < + + + . + 2 m W > % F - + @ = i ~ j $ 3 @ 2 .   . +   . + < t F W +.~ ~ ) ^ _ _ _ _ _ _ _ _ _ #._ ^ U ^ _ _ ! -.o.! E ) z B ",
"+ . + .   + . @ m H T 1 | [ ; 7 g v / h 0 T m O + @ + + . + + . n k ~ / _ *._ _ _ _ _ ^ *.;._ ^ _ _ _ _ _ _ _ _ _ U Q ) ) ) #...",
"+ . + +   . > O - c ~ T Y f w x W ~ ^ r J T = 7 7 O + + + . . + ~ Y o./ ^ _ _ ;._ _ _ _ ^ U U _ _ _ ^ _ *._ _ ^ _ _ ) / ) ) ~ ~ ",
". + . + . + - j w T ) @.~ / T ~ ) +.) / ) 6 % T h 3 + + < + + . ) ) ^ U _ _ _ _ _ _ _ ;._ _ _ _ _ +._ _ _ _ _ _ _ _ ( Q o./ Q ( ",
"+ . . . , 2 % z +.) ^ ) / / / ! ^ _ ) ) Y @ n W 0 + < . . + + + +.) ) ) #._ ^ ^ _ _ ^ _ _ _ _ _ ) _ _ _ ^ ;.+._ ^ _ _ _ U ! / _ ",
".   O + + 3 B a I ! ) ) +.) ^ U _ _ ;.) ~ z U p > $ . , + . . + _ _ _ _ _ _ _ ) U ^ _ _ _ _ _ U _ _ ;._ _ ^ U U _ +._ _ _ _ _ _ ",
".   + + + - 3 3 n ~ / ^ _ ) ) ) #.) ) X.n i E n Z s x D X . + + _ ^ ^ +.^ _ _ _ _ _ _ ^ _ _ _ _ #._ _ +._ _ _ _ *._ ^ ;.*._ _ ^ ",
"+ . . + O i F i ~ _ _ _ ;._ ^ +._ ^ _ / J x / / / T 6 $ + + + + ;._ U ^ _ _ *._ _ _ _ _ ;._ ^ _ _ ^ _ _ _ _ _ _ _ _ _ U ^ _ _ *.",
"+ . + + O - W R ! _ _ _ _ _ ^ U ^ _ ) ) Y R X.~ E e O + + < + . _ _ _ *.;._ _ ^ _ _ _ _ _ _ ^ U ^ _ _ _ ^ ^ +._ ^ _ _ _ _ _ _ _ ",
"+ + < + + 2 - ) _ _ _ ^ _ _ _ _ _ ;.#.) / Q d a 3 2 + + < , + + ^ _ _ _ _ +._ _ _ _ _ ^ _ _ _ _ _ ;.#._ _ ^ U ^ _ _ +.*._ ^ +._ ",
". + + 2 9 W n _ ^ ;.#.U _ _ ) _ _ _ ) ) +./ / / T Z < + < + + . _ _ _ ^ U _ _ _ ) ;.#.U _ _ ^ _ _ _ _ _ +._ _ _ _ _ _ _ _ _ ^ U ",
"+ . + . m n @./ ^ U U ^ _ +._ #._ _ _ ^ _ _ _ ! $.7 , + O +   + _ _ _ _ _ _ ;._ ) U U _ _ _ _ *._ _ _ ^ _ _ _ ^ ;._ _ ^ *._ _ _ ",
"+ . + + + o x ~ ) ) ) _ _ _ _ _ ) _ ) ) _ ;.[ n z 6 @ + + . + + _ ;._ _ _ _ _ _ _ _ _ _ _ _ _ _ ) _ _ _ _ ;.;._ ^ U ^ _ _ _ _ ^ ",
"+ + + < + @ > W / ) ^ +._ ) _ _ ^ U X.~ Q / c - ; h e $ + . +   _ _ _ _ ^ _ _ _ _ _ ^ _ _ _ _ _ ^ U _ _ _ _ _ _ _ _ _ _ _ *._ _ ",
"+ < < . @ 0 O./ ! / / ! U _ ;.#.) ! v x T W F h 0 # o O . < + + ;._ _ _ ^ ;.*._ ^ _ _ ^ U _ ;.*._ _ ^ _ _ _ _ _ ^ *.;._ _ _ _ _ ",
"< , + + O # 0 9 > o t / ) ) ) ) X.n u S x { ; @ O +   + + + < + _ _ _ ^ _ _ _ *._ _ _ _ _ _ _ _ _ _ _ _ _ *._ _ _ _ _ _ _ ^ _ _ ",
", + + + + @ $ * 0 J &.@.) ^ ! ~ W x w R Y W j ; + . + O . + , + _ ^ _ _ *._ ^ _ _ _ ;.;._ ^ ^ _ _ _ _ ^ ^ _ _ ^ _ _ ^ _ _ ;.;._ ",
"+ . + . + + < + @ = - j / ) ~ n x H - Z W / T 7   . + +   + + . _ _ _ _ _ _ _ _ _ _ _ _ _ _ _ _ _ _ ;.#._ _ _ _ U U _ _ _ _ _ U ",
". + + + . + , + 4 7 9 - O.| J 8 B i @ O V t i % + + + + + . + + _ _ ;._ _ _ _ ^ _ *._ ^ ;._ _ ^ _ ;._ _ _ _ _ _ _ _ ) #.) ^ _ _ ",
".   +   . + + . . + + ; a 9 @ > @ > - + + < @ . + + < + + + . + _ _ ( ( ! U U _ _ _ _ _ ^ U U _ _ _ ^ _ ) ^ _ *.;._ ( ~ ( _ ~ ~ ",
"+ + .   + + . + + . + % > $ + @ . X O + + + < < . < < + + .   + ~ W ( _ ( ( *.-._ ^ _ _ _ _ _ _ _ _ _ *._ ) ( _ _ ( ( R ~ ~ s x ",
"+ . + + + + + + . + < + + + + + . + + + . . + , + , . . + + + . z v ( ( ~ / Q ( ) _ _ _ *.;._ _ ^ ^ _ _ _ ) o.( ! ( ~ W I Y 7 > ",
"+ . < + + < + < . O , < + + < + + . + O +   + + + . . + + . + + k y L ~ ~ ( ( *.^ _ ^ ^ _ _ _ _ _ _ _ _ _ _ _ ^ ! _ *...u E n @ ",
"+ < . + + , < + + . + , + < . . + < . + + + + + . +   + + < + . 7 4 T _ z ~ ( _ ! ! U _ _ _ _ _ *._ _ _ ^ ;.) U ) ) ( ( n m | O ",
"< < + + . + , . . . + + . + +   + + < < + + < + + +   . + + < + < 4 n b w ) _ ( ) ;.) _ _ *._ _ _ _ _ _ ) ^ U _ ) R ~ | z @ 4 + ",
", + . + + + . + +   + + + + . + . + + < + < + +   . + + . + , + , i 8 + W @._ _ ( ) _ _ _ _ ^ _ _ ^ _ _ ) ) ( _ _ ~ i p Y % , + ",
"+ + + . + . . + . + + < + . . + . + . + . + . . + + . + + . . + + . + O y k E ~ ^ *._ _ _ _ _ ^ ^ _ ;.;._ ) ^ / _ %.Y i $ . O + ",
"+ . + + . + + < + + . . + + . + +   . . + + + + , + + + + + + O + O . + . + + < + + O . . + . + + . . . + + . + < + + + + + + . ",
"+ + . . + . + + < + < + . + + + . + + . +   + @ . < + < . . . + + + . . + . + + , + 4 . + + . + . + + . +   + + . < + < + . . + ",
". . . + + . + . . + .   + . + < + + . O + O 7 @ . + + + . + + O O . # u - O @ > % - r X @ O + 2 + . + @ + O + + . + + + . + + . ",
". + . < + + . + . + . . + . + , + . M x @ 7 X.0 @ + O @ J V 3 @ O % u Q h % * T j y j z > 9 - 1 + O M t @ + . . + + . +   + < + ",
"+ < < + + . + + + > O @ % @ + + - @ j | > B T [ > & 9 # x ` N C - G T / z f h b W ' k *.u ( j u O % j } 3 < + O +   . . + . , < ",
"+ < + + . O + 2 m W > % x - + @ x t ~ ! w n n ~ w h  .7 Y W a H ( ~ ~ X.T n k k ! W T ~ T ~ W T - i ~ s % > @ 2 +   . +   + + , ",
"+ + + .   + O @ 3 J n 4 ( { ; > ~ W / ~ T x | ~ T 9 R k W W O.&./ _ _ ) ~  .n b ~ ( ~ ! | -._ ! i Y ( i y T m O . + + + . + + . ",
"+   + +   O > O - J ~ T Y f w z ) / ! / @.T ^ R ~ b W W / / ) ) _ ^ +.) ! / ( -.+._ _ ( ! U U _ W ~ ! i J T - 6 7 + + + + . . + ",
". + . + . + , a w T / @.W / W ~ ) +._ _ _ / ) ~ ) ^ Q R o.) ^ _ _ _ ^ U _ _ _ _ _ _ _ *._ _ _ _ ) +.) / / : @ Y h 3 + + < + + . ",
"+ . + . , < % z +.) ^ ) / / / ! ^ ) _ _ ^ ;.X.~ ^ ^ / ~ U ^ _ _ +._ _ _ *._ ^ ^ +._ ^ _ _ _ _ ^ ^ ) ) / R % ` W 0 @ 2 O . . + + ",
".   . + @ 3 B a I ! _ _ +._ ^ U ) _ ;._ _ ^ U U _ _ _ _ ) _ _ _ _ _ _ _ _ _ _ ^ U ^ _ _ +._ ) U ) ) ;.) ~ z U q > @ + % @ . . + ",
".   + + + - 3 4 n ~ ) ^ _ _ _ _ *._ _ +._ _ ) ) +._ ^ ;.*._ _ ^ _ ^ ^ +.^ _ _ _ _ _ _ ^ _ ) ) _ *.) ) X.n i T T Z j z D . . + + ",
"+ . . + O t F t W +.) _ ;._ ^ +._ ^ _ _ _ _ _ _ _ _ _ U ^ _ _ *.;._ U ^ _ _ *._ _ +._ _ ;._ ^ +._ ^ _ / n x / ) / T 7 @ + + + + ",
". . + + O - ~ Y ! _ ) _ _ _ ^ U ^ _ _ _ ^ ^ +._ ^ _ _ _ _ _ _ _ _ _ _ *.;._ _ ^ ^ _ _ _ _ _ ^ U ^ _ ) / R R | ~ R e O + + < . O ",
"+ + < + @ 2 - / _ _ _ ^ _ _ _ _ _ ;.*._ _ ^ U ^ _ _ +.*._ ^ +._ ^ _ _ _ _ +._ _ _ _ _ ^ _ _ _ _ _ ;.*.) / R z a 3 2 + + < < + + ",
". + + 1 9 W n ) ^ ;.*.U _ _ ^ _ _ _ _ _ +._ _ _ _ _ _ _ _ _ ^ U _ _ _ ^ U _ _ _ ^ ;.*.U _ _ ^ _ _ _ _ _ +.) ) ~ T Z < . , + + . ",
"+ . + > k ~ #.) ^ U U ^ _ +._ *._ _ _ ^ _ _ _ ^ ;.+._ ^ *._ _ _ _ _ _ _ _ _ ;._ _ U U _ _ _ _ *._ _ _ ^ _ _ _ Q ..k m @ . +   + ",
"+ . + @ - w W / ) ) _ ) _ _ _ _ ^ _ _ _ _ ;.*._ ^ U ^ _ _ _ _ ^ _ ;._ _ _ _ _ _ _ _ _ _ _ _ _ _ ^ _ _ _ _ ;.*.~ Y I > $ $ . + + ",
"+ + + < + T X.W / ) ^ +.) ) _ _ ^ U +._ ^ _ _ _ _ _ _ _ _ *._ _ _ _ _ _ ^ _ _ _ _ _ ^ _ _ _ _ _ ^ U +._ ^ _ _ / / ~ h g 6 @ +   ",
"+ < , @ % 0 #.) Q / ) ^ U _ ;.*._ _ ^ ^ _ _ +._ _ *.;._ +._ _ _ *._ _ _ ^ ;.*._ ^ _ _ ^ U _ ;.*._ _ ^ ^ _ _ +._ ^ @.-.~ h 1 + + ",
"< , @ % x x t #.) _ _ _ _ _ _ _ +._ _ _ _ *._ _ _ _ _ _ ^ ^ _ _ _ _ _ ^ _ _ _ *._ _ _ _ _ _ _ _ +._ _ _ _ *._ _ ) _ / x 7 + < + ",
", + O @ S / v ~ ) _ ;.#._ ^ ^ _ _ _ _ ^ ^ _ _ ^ +._ ^ _ _ *.;.+._ ^ _ _ *._ ^ _ _ _ ;.;._ ^ ^ _ _ _ _ ^ ^ _ ) ^ +.~ j 7 # + , + ",
". O , - 0 n ~ ~ ) _ _ _ _ _ _ _ _ _ ;.*._ _ _ ^ U U _ _ _ _ _ U ^ _ _ _ _ _ _ _ _ _ _ _ _ _ _ _ _ _ ;.*._ _ _ ^ f p W 7   + + . ",
". + L } a ' / ^ _ *._ ) #.+._ ^ _ *._ _ +._ _ _ _ _ _ *._ ^ _ _ _ _ ;.*._ _ _ ^ _ *._ ^ ;._ _ ^ _ *._ _ +._ _ / W ) _ A + O + . ",
". X > s R I U _ _ _ _ _ ^ U U _ _ _ ^ _ _ ^ _ *.;._ _ _ _ _ _ _ _ +._ _ _ U U _ _ _ _ _ ^ U U _ _ _ ^ _ _ ^ ) @.-./ F = + . . + ",
"+ + O o c ~ *.;._ ^ _ _ _ _ _ _ _ _ _ *._ _ _ _ _ _ _ ^ +._ ^ _ _ _ _ _ _ _ *.;._ ^ _ _ _ _ _ _ _ _ _ *._ _ _ ) ~ T Z 7 > #   + ",
"+ . + + 7 ~ ! _ _ _ _ _ *.;._ _ ^ ^ _ _ _ _ +._ ^ _ _ _ U ^ _ *.^ _ _ +._ _ ^ _ _ _ _ _ #.;._ _ ^ ^ _ _ _ _ +._ Q W ~ ~ d @ + . ",
"+ + M 0 h W / *.^ _ ^ ^ _ _ _ _ _ _ _ _ _ _ _ ^ ^ _ *.;._ _ _ _ _ _ *._ _ _ _ *.^ _ ^ ^ _ _ _ _ _ _ _ _ _ _ _ ^ ! _ #.&.> + + + ",
"+ < - n Y ~ ~ / ^ ) U _ _ _ ) _ *._ *._ ^ ;._ U _ _ _ _ _ _ +._ _ _ _ _ ^ _ _ _ ^ ^ U _ _ _ ^ _ *._ +._ ^ ;._ U ) ) ~ i @ < + . ",
"< < O > 5 h  ./ _ ;._ _ _ *._ _ _ _ _ _ _ ^ U _ _ ^ _ +.^ _ _ *.^ ;.+._ ^ _ _ _ _ ;._ _ _ *._ _ _ _ _ _ _ ^ U _ ) ! W j 0 > 2 + ",
", + O - 0 P ^ _ _ _ _ _ _ _ ^ _ _ ^ _ _ _ _ _ _ +._ ^ U ^ _ _ _ ^ ^ U U _ *._ _ _ _ _ _ +._ ^ +._ ^ _ _ _ _ _ _ +.) Q z a 7 , + ",
"+ + % w b Q ! _ ^ #._ _ _ _ _ ) ^ _ *.;._ _ ^ _ _ *._ _ _ _ ^ _ _ _ _ _ _ _ _ _ ^ #._ ) _ _ _ ^ ^ _ *.;._ _ ^ ) ) *.) ~ j ; . + ",
"+ . @ - t T / ! _ _ _ _ _ _ _ _ _ _ _ _ _ _ _ _ _ _ _ _ _ ;._ _ _ _ ;._ _ _ _ ^ _ _ _ _ _ _ _ _ _ _ _ _ _ _ _ _ _ ) ~ x > + + . ",
"+ + O 0 t T / / +._ ^ _ ;.+._ _ +._ ^ ) _ *._ ^ _ _ _ ^ _ _ _ _ _ _ _ _ _ _ _ _ _ _ _ _ ;._ _ _ *._ ^ ^ _ *._ ^ ^ +./ b u O . + ",
". . * / &.T ~ ) _ _ ^ U _ _ U _ _ _ _ _ _ _ _ _ ^ U U ^ _ _ ^ _ _ ^ _ _ ;._ _ _ _ _ ^ U _ _ ^ _ _ _ _ _ _ _ _ _ ^ U U ! T + + . ",
". + @ i / / Q ) *._ _ _ ^ U ^ _ _ ;.#._ _ _ _ _ _ _ _ _ ;._ _ _ U _ _ _ _ _ _ _ *._ _ _ ^ U ^ _ _ ;.*._ _ _ _ _ ) ~ ~ W 5 + 2 + ",
"+ < , - e d / ) _ +._ *._ _ _ +._ _ ^ _ _ _ _ ;._ _ _ _ _ _ _ _ _ *._ _ ^ U _ _ _ _ _ ;._ _ _ _ _ _ _ _ _ ^ _ *.~ E ~ T 1 . < < ",
". < 7 ' ~ T ~ ^ ^ _ _ _ _ _ _ _ _ #._ ^ U ^ _ _ ^ ;.*.^ _ _ ^ _ _ _ _ _ _ _ _ ^ _ _ _ _ _ _ _ _ _ *._ ^ ^ ^ _ ^ R -.l >   + . < ",
"+ + 7 ( ) @./ / _ _ _ ^ +.;._ ^ _ _ _ _ _ _ _ _ _ U ^ _ _ _ ;.;._ _ _ _ _ #._ _ _ _ _ _ _ ;._ ^ _ _ _ _ _ _ _ _ ~ f j - . + @ . ",
". . + 0 f W b %._ _ _ _ ) U U _ _ _ ^ _ ;._ ^ ^ _ _ _ _ _ _ _ _ _ _ _ _ ^ _ _ ;._ _ _ _ ^ U ^ _ _ _ ^ _ *._ ^ ^ W ~ ~ > + O . . ",
". + . % i W h T ) ) _ *._ _ _ _ _ +._ _ _ _ _ _ _ _ _ ^ *._ ^ _ _ _ _ U _ _ _ _ _ _ _ *._ _ _ _ _ _ _ _ _ _ _ _ _ / h % 4 + . . ",
"+ . > * ] ~ v z X./ ! _ _ _ _ ^ ^ _ _ _ _ ;._ _ ^ _ _ _ U ^ _ _ _ _ _ _ ;._ ^ ^ +._ ^ _ _ _ _ ^ ) _ _ _ ^ ;._ _ ! ( / ~ ; + + + ",
".   b x i F T Q I ^ ) _ +._ ^ U _ _ ;._ _ ^ ^ U _ _ _ _ _ _ _ _ _ _ _ _ _ _ _ ^ U ) _ _ +._ ^ U _ _ ;._ _ ) U U ( +.T h y . . + ",
".   $  .Q ~ ~ W ~ / / ^ _ _ _ _ *._ _ +._ _ _ _ *._ ^ ;.*._ _ ^ _ ^ _ _ ^ _ _ _ _ _ _ ^ _ _ _ _ ;._ _ _ _ _ _ _ %.Y j %.k + + @ ",
". . O % k / #.) W X.) _ ;._ ^ +._ ^ _ _ _ _ _ _ _ _ _ U ^ _ _ *.;._ U ^ _ _ #._ _ _ _ _ ;._ ^ +._ ) _ _ _ _ _ _ ~ ^ ( f u + + . ",
"+ . + @ u c ~ ! E _ _ _ _ _ ^ U ^ _ _ _ ^ ^ _ _ ^ _ _ _ _ _ _ _ _ _ _ *.;._ _ ^ ^ _ _ _ _ _ ^ U ^ _ _ _ ^ ^ _ _ ! / W u % < + . ",
"+ + < + - K / / ) _ _ ^ _ _ _ _ _ ;.*._ _ _ U ^ _ _ _ ;._ ^ _ _ ^ _ _ _ _ _ _ _ _ _ _ ) _ _ _ _ _ ;.*._ _ _ U ^ / ( n N 2 , + . ",
". + + 4 6 J _ _ ^ ;.*.U _ _ ^ _ _ _ _ _ _ _ _ _ _ _ _ _ _ _ ^ ^ _ _ _ _ U _ _ _ ) ;.*.U _ _ ^ _ _ _ _ _ _ _ _ _ / T F 7 , + + . ",
"+ . + O 7 b @.) ^ U U ) _ +._ #._ _ _ ^ _ _ _ ^ ;.+._ ^ *._ _ _ _ _ _ _ _ _ *._ ) U U ^ _ +._ *._ _ _ ^ _ ) ) ! O.6 < + . +   + ",
"+ O . + + o j ~ ) _ _ _ _ _ _ _ ^ _ _ _ _ ;.*._ ^ U ^ _ _ _ _ ^ _ ;.+._ _ _ _ _ _ _ _ _ _ _ _ _ ^ _ _ ) _ ;.[ n x 6 @ + + . + + ",
"+ + + < + @ 7 W ) ) ^ _ _ ) ) ) ^ U +._ ^ _ _ _ _ _ _ _ _ *._ _ _ _ _ _ ) _ _ _ _ _ ^ _ _ ^ _ _ ^ I X.~ Q / n - - j y O + + + . ",
"+ < , + @ y O./ ^ ) _ ^ U _ ;.#._ _ ^ ^ _ _ +._ ^ *.;._ +._ _ _ #.^ ) +.^ ;.*._ ^ _ _ _ U _ ;.*.) ~ b c T W F h e O . . + , + + ",
"< < + + . # 0 9 > o r ~ ) ) ) / +._ _ _ _ *._ _ _ _ _ _ ^ ) _ _ ) _ _ ^ ) ) ) #._ _ ) ) _ _ _ _ X.n u S x { ; @ # +   + + + < + ",
"< . + + + @ $ * 0 n %.@.) ^ ^ / _ _ ) ^ ^ _ _ ^ +._ ^ _ _ *.;._ ) ^ _ ) #.) Q / ) _ ;.*._ ^ ^ _ W x w R Y T j ; @ O + . . + + + ",
"+ . + . + + < + @ = - j / / ~ n _ ) ;.#._ _ _ ^ I I ) ) _ _ _ U / ) ) ) ) ) ) / ~ / ) ) _ / / ~ l H - Z W / T 7 X . + +   + + . ",
". + + + O + , @ 4 7 6 > O.| J 8 ! +.) / +.) ) ~ / ~ / +._ ) _ _ _ ) =.O.^ +.) ^ ) *.) ^ *.X.W Q B i % O u i t , @ + + . + . + + ",
"+   +   . + + . . + @ ; s 9 @ > j / ! W / ! ~  .-.W ~ T ( _ _ _ ) o.W X.! f I ) E / / / ^ d s W @ > - + @ 2 % O + + < + + + . + ",
"+ + .   + + . + + . + % > # + @ 6 ~ ~  ./ ~ W / k T T k X.W Y ( ) W s E x T ' { k Q ~ T T n W 7 O X O + + + < < + < < + + .   + ",
"+ . + + + + + + . + < . @ + + + O 7 h T ~ 7 N / t l 6 j I e k @.E n y - > n t > 9 n F 0 7 A x - . + + + . . . < + + . . + + + . ",
"+ + , + + < + < + . < < + + < + @ @ - z - X 7 k 0 # * L b # x b a y B @ @ 3 $ 2 @ # m 3 @ @ 4 + . + + . +   + . + . . + + . + + ",
"+ < . + + , < + + . + < + < . . + < + > + + @ % @ @ X y 0 4 y 6 + 2 . + + < < + + . + , + < . . + < + + + + + + . +   + + < + . ",
"< , + + . + , . . . + + . + +   + + , 2 + + < + . .   . + + 2 @ < , + + . . < . O . + + . + +   + + , < + + < + + +   . + + < + ",
", + . + + + . + +   + + + + . + . + + , + < + + . . + + . + , . , + . + + + . + +   . + + + . + . + + < + < + +   . + + . + , + ",
"+ + + . + . . + . + + < + . . + . . O + . + . . + . . + + . . + + + + . + . . + . + + < + . . + . + . + . + . . + + . + + . . + "
};
