/* XPM */
static char *result[] = {
/* columns rows colors chars-per-pixel */
"32 32 6 1 ",
"  c #12101E",
". c #294C24",
"X c #3B6228",
"o c #55802D",
"O c #6D8E33",
"+ c None",
/* pixels */
"++++++++++++++    ++++++++++++++",
"++++++++++++  oooo  ++++++++++++",
"++++++++++  oooooooo  ++++++++++",
"++++++++  ooooooOOOooo  ++++++++",
"++++++  ooXXOOOoooOOOooo  ++++++",
"++++  ooooXXXXOOoooooooooo  ++++",
"++  ooooooOooXooooooooXooooo  ++",
"  oooooOOoOOoooooOOOOoXooooooo  ",
" oooXXXXOOXOOoXoooooXXooXOOoooo ",
" oooooXXXXOXO.XooOOooOOo.XOOOoo ",
" oooOooooXXO..ooXXOoXXXX.XXoooo ",
" oooOOoooo...XooXXXooXX.ooooooo ",
" XOOOOXX.oooXXoooOOOO...ooOOOXX ",
" XXOOOOX.oooooooOOooooOoooX..Xo ",
" oXOXX...OOOooooooXOOOO.XooXooo ",
" ooo...ooXXOOoOOoooX...Xooooooo ",
" oooXXXooX...o..OOoooXXXooXXXoo ",
" XXXooOoo.ooooOOXXXoOOOoooXX.oo ",
" ooXXoOOooooooXXXOoXXXXoooo..oo ",
" oooXoOXOXoooooooOOooOOoooooooo ",
" oooOOOXOXXooooooXOoo..OOoooooo ",
" oooXOOXXooooOOoOOXXoo...oooooo ",
" oooX...ooOOOOX.ooXXoooXXoXXXXo ",
" ooooXX.oXooOXX.XXoooooooooXXXX ",
"  oooXXXoXXoX...XXXoooooXooooo  ",
"++  oooooooooXoooXXOOOooXXoo  ++",
"++++  oooXXXoXoOOoooXXOooo  ++++",
"++++++  oXXXooooXXXooXXX  ++++++",
"++++++++  ooooXXXXoooo  ++++++++",
"++++++++++  oooXXXoo  ++++++++++",
"++++++++++++  oooo  ++++++++++++",
"++++++++++++++    ++++++++++++++"
};
